<svg width="1920" height="1080" viewBox="0 0 1920 1080" fill="none" xmlns="http://www.w3.org/2000/svg">
<g filter="url(#filter0_d_43411_19)">
<g clip-path="url(#clip0_43411_19)">
<rect width="1920" height="1080" rx="120" fill="black"/>
<g filter="url(#filter1_f_43411_19)">
<path d="M917.499 668.5C1621.62 802.743 2189.67 116.446 2194 -435.5C2382.26 -218.729 2370.99 592.758 2557.95 1353.46C2791.66 2304.34 1421.88 2003.77 357.208 1883.55C-494.527 1787.37 -267.494 370.351 -129 -300C145.479 -248.77 114.999 515.5 917.499 668.5Z" fill="url(#paint0_linear_43411_19)"/>
</g>
<g filter="url(#filter2_f_43411_19)">
<path d="M455.645 939.646C1140.65 1361.72 1812.05 772.959 2243.54 522.292C2081.33 925.67 1751.79 1737.49 1731.29 1757.77C1705.65 1783.12 786.836 2197.21 755.635 2186.16C730.674 2177.33 95.0701 1579.61 -219.612 1281.85C-400.884 927.602 -229.355 517.571 455.645 939.646Z" fill="url(#paint1_linear_43411_19)"/>
</g>
</g>
<rect x="1" y="1" width="1918" height="1078" rx="119" stroke="black" stroke-opacity="0.6" stroke-width="2"/>
</g>
<defs>
<filter id="filter0_d_43411_19" x="-28" y="0" width="1976" height="1140" filterUnits="userSpaceOnUse" color-interpolation-filters="sRGB">
<feFlood flood-opacity="0" result="BackgroundImageFix"/>
<feColorMatrix in="SourceAlpha" type="matrix" values="0 0 0 0 0 0 0 0 0 0 0 0 0 0 0 0 0 0 127 0" result="hardAlpha"/>
<feMorphology radius="12" operator="erode" in="SourceAlpha" result="effect1_dropShadow_43411_19"/>
<feOffset dy="32"/>
<feGaussianBlur stdDeviation="20"/>
<feComposite in2="hardAlpha" operator="out"/>
<feColorMatrix type="matrix" values="0 0 0 0 0 0 0 0 0 0 0 0 0 0 0 0 0 0 0.25 0"/>
<feBlend mode="normal" in2="BackgroundImageFix" result="effect1_dropShadow_43411_19"/>
<feBlend mode="normal" in="SourceGraphic" in2="effect1_dropShadow_43411_19" result="shape"/>
</filter>
<filter id="filter1_f_43411_19" x="-563.963" y="-735.5" width="3448.26" height="3060.53" filterUnits="userSpaceOnUse" color-interpolation-filters="sRGB">
<feFlood flood-opacity="0" result="BackgroundImageFix"/>
<feBlend mode="normal" in="SourceGraphic" in2="BackgroundImageFix" result="shape"/>
<feGaussianBlur stdDeviation="150" result="effect1_foregroundBlur_43411_19"/>
</filter>
<filter id="filter2_f_43411_19" x="-586.957" y="222.292" width="3130.49" height="2264.09" filterUnits="userSpaceOnUse" color-interpolation-filters="sRGB">
<feFlood flood-opacity="0" result="BackgroundImageFix"/>
<feBlend mode="normal" in="SourceGraphic" in2="BackgroundImageFix" result="shape"/>
<feGaussianBlur stdDeviation="150" result="effect1_foregroundBlur_43411_19"/>
</filter>
<linearGradient id="paint0_linear_43411_19" x1="1473.81" y1="888.65" x2="363.7" y2="888.65" gradientUnits="userSpaceOnUse">
<stop stop-color="#5613A3"/>
<stop offset="1" stop-color="#522BC8"/>
</linearGradient>
<linearGradient id="paint1_linear_43411_19" x1="1575.38" y1="1076.52" x2="276.806" y2="866.198" gradientUnits="userSpaceOnUse">
<stop stop-color="#AC88FF"/>
<stop offset="0.682692" stop-color="#AD3AE7"/>
</linearGradient>
<clipPath id="clip0_43411_19">
<rect width="1920" height="1080" rx="120" fill="white"/>
</clipPath>
</defs>
</svg>
